<svg width="900" height="720" viewBox="0 0 900 720" fill="none" xmlns="http://www.w3.org/2000/svg">
  <rect width="900" height="720" rx="48" fill="#0F172A"/>
  <g opacity="0.8">
    <circle cx="180" cy="170" r="120" fill="#34D399" fill-opacity="0.2"/>
    <circle cx="690" cy="130" r="160" fill="#A7F3D0" fill-opacity="0.12"/>
    <circle cx="620" cy="540" r="200" fill="#34D399" fill-opacity="0.16"/>
  </g>
  <path d="M140 470C225 400 310 360 420 350C560 336 650 410 760 430" stroke="#34D399" stroke-width="10" stroke-linecap="round" stroke-linejoin="round"/>
  <path d="M160 250C260 220 320 200 420 210C560 222 640 280 740 310" stroke="#38BDF8" stroke-width="10" stroke-linecap="round" stroke-linejoin="round"/>
  <g>
    <rect x="120" y="280" width="240" height="180" rx="28" fill="#111827" stroke="#1F2937" stroke-width="2"/>
    <rect x="150" y="310" width="180" height="18" rx="9" fill="#34D399" fill-opacity="0.7"/>
    <rect x="150" y="340" width="140" height="12" rx="6" fill="#E2E8F0" fill-opacity="0.4"/>
    <rect x="150" y="370" width="160" height="12" rx="6" fill="#E2E8F0" fill-opacity="0.4"/>
  </g>
  <g>
    <rect x="500" y="260" width="260" height="220" rx="28" fill="#111827" stroke="#1F2937" stroke-width="2"/>
    <rect x="530" y="292" width="200" height="18" rx="9" fill="#38BDF8" fill-opacity="0.65"/>
    <rect x="530" y="322" width="150" height="12" rx="6" fill="#E2E8F0" fill-opacity="0.4"/>
    <rect x="530" y="352" width="190" height="12" rx="6" fill="#E2E8F0" fill-opacity="0.4"/>
    <rect x="530" y="382" width="120" height="12" rx="6" fill="#E2E8F0" fill-opacity="0.4"/>
  </g>
  <g>
    <rect x="280" y="470" width="340" height="180" rx="32" fill="#111827" stroke="#1F2937" stroke-width="2"/>
    <rect x="320" y="510" width="260" height="18" rx="9" fill="#A7F3D0" fill-opacity="0.6"/>
    <rect x="320" y="540" width="210" height="12" rx="6" fill="#E2E8F0" fill-opacity="0.4"/>
    <rect x="320" y="568" width="180" height="12" rx="6" fill="#E2E8F0" fill-opacity="0.4"/>
  </g>
  <g>
    <circle cx="450" cy="170" r="52" fill="#111827" stroke="#1F2937" stroke-width="2"/>
    <path d="M430 170H470" stroke="#34D399" stroke-width="8" stroke-linecap="round"/>
    <path d="M450 150V190" stroke="#34D399" stroke-width="8" stroke-linecap="round"/>
  </g>
</svg>
